<?xml version="1.0" encoding="UTF-8"?>
<svg xmlns="http://www.w3.org/2000/svg" xmlns:xlink="http://www.w3.org/1999/xlink" width="50" height="50" viewBox="0 0 50 50" version="1.1">
<g id="surface1">
<path style=" stroke:none;fill-rule:nonzero;fill:rgb(14.509805%,34.117648%,83.92157%);fill-opacity:1;" d="M 0 8.972656 L 50 8.972656 L 50 41.027344 L 0 41.027344 Z M 0 8.972656 "/>
<path style=" stroke:none;fill-rule:nonzero;fill:rgb(100%,100%,100%);fill-opacity:1;" d="M 0.015625 24.082031 L 2.417969 24.082031 L 2.957031 22.832031 L 4.167969 22.832031 L 4.707031 24.082031 L 9.429688 24.082031 L 9.429688 23.125 L 9.851562 24.085938 L 12.304688 24.085938 L 12.726562 23.113281 L 12.726562 24.082031 L 24.460938 24.082031 L 24.457031 22.03125 L 24.683594 22.03125 C 24.84375 22.035156 24.886719 22.050781 24.886719 22.300781 L 24.886719 24.082031 L 30.957031 24.082031 L 30.957031 23.605469 C 31.449219 23.855469 32.210938 24.082031 33.210938 24.082031 L 35.765625 24.082031 L 36.3125 22.832031 L 37.523438 22.832031 L 38.058594 24.082031 L 42.976562 24.082031 L 42.976562 22.894531 L 43.722656 24.082031 L 47.667969 24.082031 L 47.667969 16.230469 L 43.765625 16.230469 L 43.765625 17.15625 L 43.21875 16.230469 L 39.214844 16.230469 L 39.214844 17.15625 L 38.710938 16.230469 L 33.300781 16.230469 C 32.398438 16.230469 31.601562 16.351562 30.957031 16.6875 L 30.957031 16.230469 L 27.226562 16.230469 L 27.226562 16.6875 C 26.816406 16.339844 26.257812 16.230469 25.640625 16.230469 L 12.003906 16.230469 L 11.085938 18.257812 L 10.148438 16.230469 L 5.851562 16.230469 L 5.851562 17.15625 L 5.378906 16.230469 L 1.71875 16.230469 L 0.015625 19.964844 Z M 15.167969 22.949219 L 13.726562 22.949219 L 13.722656 18.539062 L 11.683594 22.949219 L 10.449219 22.949219 L 8.410156 18.535156 L 8.410156 22.949219 L 5.550781 22.949219 L 5.011719 21.695312 L 2.085938 21.695312 L 1.542969 22.949219 L 0.015625 22.949219 L 2.53125 17.320312 L 4.617188 17.320312 L 7.007812 22.648438 L 7.007812 17.320312 L 9.300781 17.320312 L 11.136719 21.140625 L 12.828125 17.320312 L 15.167969 17.320312 Z M 4.53125 20.527344 L 3.570312 18.28125 L 2.613281 20.527344 Z M 20.898438 22.949219 L 16.203125 22.949219 L 16.203125 17.320312 L 20.898438 17.320312 L 20.898438 18.492188 L 17.609375 18.492188 L 17.609375 19.507812 L 20.816406 19.507812 L 20.816406 20.660156 L 17.609375 20.660156 L 17.609375 21.785156 L 20.898438 21.785156 Z M 27.511719 18.835938 C 27.511719 19.734375 26.882812 20.199219 26.519531 20.335938 C 26.828125 20.449219 27.089844 20.648438 27.214844 20.8125 C 27.414062 21.089844 27.449219 21.339844 27.449219 21.84375 L 27.449219 22.949219 L 26.03125 22.949219 L 26.023438 22.238281 C 26.023438 21.902344 26.058594 21.414062 25.804688 21.144531 C 25.597656 20.945312 25.285156 20.902344 24.78125 20.902344 L 23.273438 20.902344 L 23.273438 22.949219 L 21.867188 22.949219 L 21.867188 17.320312 L 25.097656 17.320312 C 25.816406 17.320312 26.34375 17.335938 26.800781 17.589844 C 27.242188 17.839844 27.511719 18.207031 27.511719 18.835938 Z M 25.734375 19.671875 C 25.542969 19.785156 25.3125 19.789062 25.039062 19.789062 L 23.332031 19.789062 L 23.332031 18.539062 L 25.0625 18.539062 C 25.308594 18.539062 25.5625 18.546875 25.730469 18.640625 C 25.910156 18.722656 26.023438 18.894531 26.023438 19.136719 C 26.023438 19.382812 25.917969 19.582031 25.734375 19.671875 Z M 29.761719 22.949219 L 28.328125 22.949219 L 28.328125 17.320312 L 29.761719 17.320312 Z M 46.402344 22.949219 L 44.410156 22.949219 L 41.75 18.722656 L 41.75 22.949219 L 38.886719 22.949219 L 38.339844 21.695312 L 35.421875 21.695312 L 34.890625 22.949219 L 33.25 22.949219 C 32.566406 22.949219 31.699219 22.804688 31.210938 22.328125 C 30.71875 21.847656 30.460938 21.203125 30.460938 20.175781 C 30.460938 19.34375 30.613281 18.578125 31.21875 17.976562 C 31.671875 17.527344 32.382812 17.320312 33.351562 17.320312 L 34.710938 17.320312 L 34.710938 18.527344 L 33.378906 18.527344 C 32.867188 18.527344 32.578125 18.597656 32.300781 18.859375 C 32.058594 19.097656 31.894531 19.542969 31.894531 20.132812 C 31.894531 20.738281 32.019531 21.171875 32.28125 21.457031 C 32.496094 21.679688 32.890625 21.746094 33.261719 21.746094 L 33.890625 21.746094 L 35.871094 17.320312 L 37.976562 17.320312 L 40.355469 22.644531 L 40.355469 17.320312 L 42.492188 17.320312 L 44.960938 21.242188 L 44.960938 17.320312 L 46.402344 17.320312 Z M 37.863281 20.527344 L 36.890625 18.28125 L 35.925781 20.527344 Z M 49.980469 31.941406 C 49.640625 32.417969 48.976562 32.660156 48.074219 32.660156 L 45.363281 32.660156 L 45.363281 31.453125 L 48.0625 31.453125 C 48.332031 31.453125 48.519531 31.417969 48.632812 31.3125 C 48.738281 31.21875 48.800781 31.085938 48.796875 30.945312 C 48.796875 30.78125 48.730469 30.652344 48.625 30.574219 C 48.523438 30.488281 48.375 30.449219 48.132812 30.449219 C 46.8125 30.40625 45.167969 30.488281 45.167969 28.707031 C 45.167969 27.890625 45.707031 27.03125 47.183594 27.03125 L 49.980469 27.03125 L 49.980469 25.910156 L 47.378906 25.910156 C 46.597656 25.910156 46.027344 26.089844 45.621094 26.367188 L 45.621094 25.910156 L 41.777344 25.910156 C 41.164062 25.910156 40.441406 26.054688 40.097656 26.367188 L 40.097656 25.910156 L 33.234375 25.910156 L 33.234375 26.367188 C 32.6875 25.992188 31.765625 25.910156 31.339844 25.910156 L 26.808594 25.910156 L 26.808594 26.367188 C 26.375 25.96875 25.414062 25.910156 24.828125 25.910156 L 19.761719 25.910156 L 18.601562 27.113281 L 17.515625 25.910156 L 9.941406 25.910156 L 9.941406 33.765625 L 17.371094 33.765625 L 18.566406 32.546875 L 19.691406 33.765625 L 24.273438 33.769531 L 24.273438 31.921875 L 24.722656 31.921875 C 25.328125 31.933594 26.046875 31.90625 26.679688 31.644531 L 26.679688 33.765625 L 30.457031 33.765625 L 30.457031 31.71875 L 30.636719 31.71875 C 30.871094 31.71875 30.894531 31.726562 30.894531 31.949219 L 30.894531 33.765625 L 42.367188 33.765625 C 43.097656 33.765625 43.859375 33.589844 44.28125 33.265625 L 44.28125 33.765625 L 47.921875 33.765625 C 48.675781 33.765625 49.417969 33.664062 49.980469 33.40625 Z M 27.226562 28.917969 C 27.226562 30.484375 26.011719 30.804688 24.78125 30.804688 L 23.027344 30.804688 L 23.027344 32.695312 L 20.300781 32.695312 L 18.570312 30.832031 L 16.773438 32.695312 L 11.207031 32.695312 L 11.207031 27.0625 L 16.855469 27.0625 L 18.585938 28.910156 L 20.371094 27.0625 L 24.859375 27.0625 C 25.976562 27.0625 27.226562 27.359375 27.226562 28.917969 Z M 16.058594 31.511719 L 12.605469 31.511719 L 12.605469 30.390625 L 15.691406 30.390625 L 15.691406 29.242188 L 12.605469 29.242188 L 12.605469 28.214844 L 16.128906 28.214844 L 17.664062 29.859375 Z M 21.625 32.15625 L 19.46875 29.859375 L 21.625 27.640625 Z M 24.8125 29.652344 L 23 29.652344 L 23 28.214844 L 24.832031 28.214844 C 25.335938 28.214844 25.691406 28.414062 25.691406 28.90625 C 25.691406 29.394531 25.355469 29.652344 24.8125 29.652344 Z M 34.324219 27.0625 L 39.011719 27.0625 L 39.011719 28.226562 L 35.722656 28.226562 L 35.722656 29.25 L 38.933594 29.25 L 38.933594 30.402344 L 35.722656 30.402344 L 35.722656 31.519531 L 39.011719 31.527344 L 39.011719 32.695312 L 34.324219 32.695312 Z M 32.523438 30.078125 C 32.835938 30.1875 33.089844 30.386719 33.210938 30.550781 C 33.410156 30.824219 33.4375 31.082031 33.441406 31.578125 L 33.441406 32.695312 L 32.03125 32.695312 L 32.03125 31.988281 C 32.03125 31.652344 32.066406 31.148438 31.804688 30.886719 C 31.601562 30.6875 31.289062 30.636719 30.773438 30.636719 L 29.273438 30.636719 L 29.273438 32.695312 L 27.863281 32.695312 L 27.863281 27.0625 L 31.105469 27.0625 C 31.816406 27.0625 32.335938 27.09375 32.796875 27.328125 C 33.238281 27.585938 33.519531 27.9375 33.519531 28.578125 C 33.519531 29.476562 32.890625 29.9375 32.523438 30.078125 Z M 31.726562 29.367188 C 31.539062 29.472656 31.308594 29.480469 31.035156 29.480469 L 29.328125 29.480469 L 29.328125 28.214844 L 31.058594 28.214844 C 31.308594 28.214844 31.558594 28.222656 31.726562 28.316406 C 31.910156 28.410156 32.019531 28.585938 32.019531 28.824219 C 32.019531 29.066406 31.910156 29.261719 31.726562 29.367188 Z M 44.410156 29.722656 C 44.683594 29.996094 44.828125 30.335938 44.828125 30.917969 C 44.828125 32.128906 44.039062 32.695312 42.621094 32.695312 L 39.886719 32.695312 L 39.886719 31.488281 L 42.613281 31.488281 C 42.878906 31.488281 43.066406 31.453125 43.183594 31.347656 C 43.28125 31.261719 43.351562 31.132812 43.351562 30.980469 C 43.351562 30.816406 43.277344 30.6875 43.179688 30.609375 C 43.074219 30.523438 42.925781 30.484375 42.679688 30.484375 C 41.367188 30.441406 39.722656 30.523438 39.722656 28.738281 C 39.722656 27.921875 40.257812 27.0625 41.730469 27.0625 L 44.546875 27.0625 L 44.546875 28.261719 L 41.96875 28.261719 C 41.714844 28.261719 41.546875 28.269531 41.40625 28.363281 C 41.25 28.453125 41.195312 28.589844 41.195312 28.769531 C 41.195312 28.980469 41.324219 29.125 41.503906 29.1875 C 41.648438 29.238281 41.808594 29.25 42.046875 29.25 L 42.804688 29.269531 C 43.566406 29.289062 44.089844 29.414062 44.410156 29.722656 Z M 49.984375 28.214844 L 47.421875 28.214844 C 47.167969 28.214844 46.996094 28.226562 46.855469 28.316406 C 46.707031 28.410156 46.648438 28.542969 46.648438 28.722656 C 46.648438 28.9375 46.773438 29.082031 46.957031 29.144531 C 47.105469 29.191406 47.265625 29.207031 47.496094 29.207031 L 48.257812 29.226562 C 49.027344 29.246094 49.539062 29.371094 49.851562 29.679688 C 49.910156 29.722656 49.945312 29.769531 49.984375 29.820312 Z M 49.984375 28.214844 "/>
</g>
</svg>
