<?xml version="1.0" encoding="UTF-8"?>
<svg xmlns="http://www.w3.org/2000/svg" xmlns:xlink="http://www.w3.org/1999/xlink" width="50" height="50" viewBox="0 0 50 50" version="1.1">
<g id="surface1">
<path style=" stroke:none;fill-rule:nonzero;fill:rgb(0%,47.450981%,74.509805%);fill-opacity:1;" d="M 0 8.972656 L 50 8.972656 L 50 41.027344 L 0 41.027344 Z M 0 8.972656 "/>
<path style=" stroke:none;fill-rule:nonzero;fill:rgb(100%,100%,100%);fill-opacity:1;" d="M 38.457031 25.09375 C 38.457031 18.71875 33.136719 14.316406 27.308594 14.316406 L 22.292969 14.316406 C 16.394531 14.316406 11.542969 18.722656 11.542969 25.09375 C 11.542969 30.921875 16.394531 35.710938 22.292969 35.683594 L 27.308594 35.683594 C 33.136719 35.710938 38.457031 30.921875 38.457031 25.09375 Z M 38.457031 25.09375 "/>
<path style=" stroke:none;fill-rule:nonzero;fill:rgb(0%,47.450981%,74.509805%);fill-opacity:1;" d="M 22.324219 15.21875 C 16.9375 15.222656 12.570312 19.597656 12.570312 25 C 12.570312 30.402344 16.9375 34.777344 22.324219 34.78125 C 27.714844 34.777344 32.082031 30.402344 32.085938 25 C 32.082031 19.597656 27.714844 15.222656 22.324219 15.21875 Z M 22.324219 15.21875 "/>
<path style=" stroke:none;fill-rule:nonzero;fill:rgb(100%,100%,100%);fill-opacity:1;" d="M 16.160156 24.972656 C 16.164062 22.335938 17.808594 20.082031 20.128906 19.1875 L 20.128906 30.757812 C 17.808594 29.863281 16.164062 27.613281 16.160156 24.972656 Z M 24.554688 30.761719 L 24.554688 19.1875 C 26.875 20.082031 28.523438 22.332031 28.527344 24.972656 C 28.523438 27.617188 26.875 29.867188 24.554688 30.761719 Z M 24.554688 30.761719 "/>
</g>
</svg>
