<?xml version="1.0" encoding="UTF-8"?>
<svg xmlns="http://www.w3.org/2000/svg" xmlns:xlink="http://www.w3.org/1999/xlink" width="50" height="50" viewBox="0 0 50 50" version="1.1">
<g id="surface1">
<path style=" stroke:none;fill-rule:evenodd;fill:rgb(30.19608%,30.19608%,30.19608%);fill-opacity:1;" d="M 3.523438 8.972656 L 0 8.972656 L 0 41.089844 L 42.949219 41.089844 C 48.421875 41.089844 50 39.511719 50 37.5625 L 50 8.972656 Z M 3.523438 8.972656 "/>
<path style=" stroke:none;fill-rule:evenodd;fill:rgb(100%,100%,100%);fill-opacity:1;" d="M 20.972656 19.351562 C 21.539062 19.351562 22.011719 19.464844 22.589844 19.742188 L 22.589844 21.199219 C 22.042969 20.695312 21.566406 20.484375 20.941406 20.484375 C 19.707031 20.484375 18.734375 21.449219 18.734375 22.667969 C 18.734375 23.957031 19.675781 24.859375 21 24.859375 C 21.597656 24.859375 22.066406 24.660156 22.589844 24.164062 L 22.589844 25.625 C 21.992188 25.890625 21.507812 25.992188 20.941406 25.992188 C 18.933594 25.992188 17.378906 24.546875 17.378906 22.675781 C 17.378906 20.828125 18.976562 19.351562 20.972656 19.351562 Z M 14.746094 19.390625 C 15.484375 19.390625 16.164062 19.628906 16.730469 20.097656 L 16.039062 20.945312 C 15.699219 20.585938 15.375 20.433594 14.980469 20.433594 C 14.410156 20.433594 14 20.734375 14 21.136719 C 14 21.480469 14.230469 21.660156 15.019531 21.9375 C 16.519531 22.453125 16.960938 22.910156 16.960938 23.917969 C 16.960938 25.148438 16 26.003906 14.632812 26.003906 C 13.632812 26.003906 12.902344 25.632812 12.296875 24.796875 L 13.148438 24.023438 C 13.449219 24.578125 13.957031 24.871094 14.585938 24.871094 C 15.171875 24.871094 15.605469 24.492188 15.605469 23.976562 C 15.605469 23.707031 15.476562 23.480469 15.210938 23.316406 C 15.078125 23.242188 14.816406 23.128906 14.300781 22.957031 C 13.066406 22.535156 12.640625 22.089844 12.640625 21.214844 C 12.640625 20.171875 13.550781 19.390625 14.746094 19.390625 Z M 29.792969 19.503906 L 31.230469 19.503906 L 33.03125 23.773438 L 34.855469 19.503906 L 36.28125 19.503906 L 33.367188 26.019531 L 32.65625 26.019531 Z M 4.320312 19.511719 L 6.253906 19.511719 C 8.390625 19.511719 9.878906 20.820312 9.878906 22.695312 C 9.878906 23.628906 9.421875 24.535156 8.652344 25.132812 C 8.003906 25.640625 7.265625 25.867188 6.242188 25.867188 L 4.320312 25.867188 Z M 10.484375 19.511719 L 11.800781 19.511719 L 11.800781 25.867188 L 10.484375 25.867188 Z M 36.878906 19.511719 L 40.609375 19.511719 L 40.609375 20.589844 L 38.191406 20.589844 L 38.191406 22 L 40.523438 22 L 40.523438 23.078125 L 38.191406 23.078125 L 38.191406 24.792969 L 40.609375 24.792969 L 40.609375 25.867188 L 36.878906 25.867188 Z M 41.484375 19.511719 L 43.4375 19.511719 C 44.953125 19.511719 45.824219 20.199219 45.824219 21.390625 C 45.824219 22.363281 45.277344 23 44.285156 23.191406 L 46.410156 25.867188 L 44.792969 25.867188 L 42.96875 23.316406 L 42.796875 23.316406 L 42.796875 25.867188 L 41.484375 25.867188 Z M 42.796875 20.515625 L 42.796875 22.4375 L 43.183594 22.4375 C 44.023438 22.4375 44.46875 22.09375 44.46875 21.457031 C 44.46875 20.835938 44.023438 20.515625 43.203125 20.515625 Z M 5.636719 20.589844 L 5.636719 24.792969 L 5.992188 24.792969 C 6.839844 24.792969 7.378906 24.640625 7.792969 24.285156 C 8.246094 23.90625 8.523438 23.296875 8.523438 22.6875 C 8.523438 22.078125 8.246094 21.484375 7.792969 21.105469 C 7.359375 20.734375 6.839844 20.589844 5.992188 20.589844 Z M 5.636719 20.589844 "/>
<path style=" stroke:none;fill-rule:evenodd;fill:rgb(95.686275%,44.705883%,8.627451%);fill-opacity:1;" d="M 26.609375 19.308594 C 28.59375 19.308594 30.203125 20.820312 30.203125 22.6875 C 30.203125 24.558594 28.59375 26.070312 26.609375 26.070312 C 24.628906 26.070312 23.019531 24.558594 23.019531 22.6875 C 23.019531 20.820312 24.628906 19.308594 26.609375 19.308594 Z M 50 27.457031 C 48.328125 28.632812 35.828125 37.03125 14.179688 41.089844 L 50 41.089844 L 50 8.972656 Z M 50 27.457031 "/>
</g>
</svg>
