<?xml version="1.0" encoding="UTF-8"?>
<svg xmlns="http://www.w3.org/2000/svg" xmlns:xlink="http://www.w3.org/1999/xlink" width="50" height="50" viewBox="0 0 50 50" version="1.1">
<defs>
<linearGradient id="linear0" gradientUnits="userSpaceOnUse" x1="83.976997" y1="645.5" x2="84.976997" y2="645.5" gradientTransform="matrix(8.517307,0,0,-20.70641,-685,13391.025641)">
<stop offset="0" style="stop-color:rgb(0%,48.235294%,25.098039%);stop-opacity:1;"/>
<stop offset="1" style="stop-color:rgb(33.333333%,70.196078%,18.823529%);stop-opacity:1;"/>
</linearGradient>
<linearGradient id="linear1" gradientUnits="userSpaceOnUse" x1="83.984001" y1="645.5" x2="84.978996" y2="645.5" gradientTransform="matrix(8.553205,0,0,-20.70641,-707.115385,13391.025641)">
<stop offset="0" style="stop-color:rgb(11.372549%,16.078431%,43.921569%);stop-opacity:1;"/>
<stop offset="1" style="stop-color:rgb(0%,42.745098%,72.941176%);stop-opacity:1;"/>
</linearGradient>
<linearGradient id="linear2" gradientUnits="userSpaceOnUse" x1="83.977997" y1="645.5" x2="84.976997" y2="645.5" gradientTransform="matrix(8.523077,0,0,-20.707051,-695,13391.666667)">
<stop offset="0" style="stop-color:rgb(43.137255%,16.862745%,18.431373%);stop-opacity:1;"/>
<stop offset="1" style="stop-color:rgb(89.019608%,0.392157%,21.960784%);stop-opacity:1;"/>
</linearGradient>
</defs>
<g id="surface1">
<path style=" stroke:none;fill-rule:nonzero;fill:rgb(5.490196%,29.803923%,58.823532%);fill-opacity:1;" d="M 0 8.972656 L 50 8.972656 L 50 41.027344 L 0 41.027344 Z M 0 8.972656 "/>
<path style=" stroke:none;fill-rule:nonzero;fill:rgb(100%,100%,100%);fill-opacity:1;" d="M 40.527344 32.132812 C 40.527344 34.800781 38.367188 36.964844 35.699219 36.964844 L 9.472656 36.964844 L 9.472656 17.867188 C 9.472656 15.199219 11.632812 13.039062 14.300781 13.039062 L 40.527344 13.039062 Z M 40.527344 32.132812 "/>
<path style=" stroke:none;fill-rule:nonzero;fill:url(#linear0);" d="M 31.976562 25.417969 C 32.726562 25.433594 33.480469 25.386719 34.226562 25.445312 C 34.980469 25.585938 35.164062 26.730469 34.492188 27.105469 C 34.035156 27.351562 33.492188 27.195312 32.996094 27.238281 L 31.976562 27.238281 Z M 34.660156 23.359375 C 34.828125 23.945312 34.261719 24.472656 33.695312 24.394531 L 31.976562 24.394531 C 31.988281 23.839844 31.953125 23.238281 31.996094 22.710938 C 32.683594 22.730469 33.375 22.671875 34.058594 22.742188 C 34.355469 22.816406 34.601562 23.058594 34.660156 23.359375 Z M 38.789062 14.648438 C 38.820312 15.769531 38.792969 16.949219 38.804688 18.09375 C 38.800781 22.75 38.808594 27.402344 38.800781 32.054688 C 38.769531 33.800781 37.222656 35.316406 35.492188 35.351562 C 33.757812 35.355469 32.023438 35.351562 30.289062 35.351562 L 30.289062 28.316406 C 32.179688 28.308594 34.070312 28.335938 35.957031 28.300781 C 36.835938 28.246094 37.792969 27.667969 37.835938 26.707031 C 37.9375 25.738281 37.023438 25.066406 36.160156 24.960938 C 35.824219 24.953125 35.835938 24.863281 36.160156 24.824219 C 36.984375 24.648438 37.632812 23.792969 37.390625 22.933594 C 37.183594 22.035156 36.1875 21.683594 35.359375 21.6875 C 33.667969 21.675781 31.980469 21.683594 30.289062 21.683594 C 30.300781 20.367188 30.269531 19.054688 30.308594 17.742188 C 30.441406 16.027344 32.027344 14.617188 33.734375 14.648438 Z M 38.789062 14.648438 "/>
<path style=" stroke:none;fill-rule:nonzero;fill:url(#linear1);" d="M 11.203125 17.917969 C 11.246094 16.179688 12.796875 14.675781 14.527344 14.648438 C 16.253906 14.644531 17.980469 14.648438 19.707031 14.648438 C 19.703125 20.472656 19.71875 26.300781 19.703125 32.125 C 19.632812 33.84375 18.097656 35.320312 16.386719 35.351562 C 14.65625 35.355469 12.925781 35.351562 11.195312 35.351562 L 11.195312 28.082031 C 12.878906 28.476562 14.640625 28.648438 16.355469 28.382812 C 17.378906 28.21875 18.5 27.714844 18.847656 26.652344 C 19.105469 25.742188 18.960938 24.785156 19 23.851562 L 19 21.683594 L 16.03125 21.683594 C 16.015625 23.117188 16.058594 24.554688 16.007812 25.984375 C 15.929688 26.867188 15.058594 27.425781 14.226562 27.394531 C 13.199219 27.40625 11.15625 26.648438 11.15625 26.648438 C 11.152344 23.960938 11.1875 20.597656 11.203125 17.917969 Z M 11.203125 17.917969 "/>
<path style=" stroke:none;fill-rule:nonzero;fill:url(#linear2);" d="M 20.816406 22.558594 C 20.660156 22.589844 20.785156 22.023438 20.742188 21.808594 C 20.753906 20.453125 20.722656 19.097656 20.761719 17.742188 C 20.894531 16.023438 22.492188 14.605469 24.207031 14.648438 L 29.257812 14.648438 C 29.25 20.472656 29.265625 26.300781 29.25 32.125 C 29.183594 33.84375 27.648438 35.320312 25.9375 35.351562 C 24.207031 35.355469 22.476562 35.351562 20.742188 35.351562 L 20.742188 27.386719 C 21.925781 28.355469 23.53125 28.507812 25.003906 28.507812 C 26.113281 28.507812 27.21875 28.335938 28.296875 28.082031 L 28.296875 26.621094 C 27.082031 27.226562 25.652344 27.613281 24.308594 27.261719 C 23.367188 27.03125 22.683594 26.121094 22.699219 25.152344 C 22.589844 24.144531 23.183594 23.078125 24.171875 22.78125 C 25.402344 22.394531 26.746094 22.6875 27.898438 23.191406 C 28.144531 23.320312 28.394531 23.480469 28.296875 23.066406 L 28.296875 21.917969 C 26.367188 21.460938 24.316406 21.292969 22.378906 21.789062 C 21.816406 21.949219 21.269531 22.1875 20.816406 22.558594 Z M 20.816406 22.558594 "/>
</g>
</svg>
