<?xml version="1.0" encoding="UTF-8"?>
<svg xmlns="http://www.w3.org/2000/svg" xmlns:xlink="http://www.w3.org/1999/xlink" width="50" height="50" viewBox="0 0 50 50" version="1.1">
<g id="surface1">
<path style=" stroke:none;fill-rule:nonzero;fill:rgb(8.627451%,21.176471%,43.529412%);fill-opacity:1;" d="M 0 8.972656 L 50 8.972656 L 50 41.027344 L 0 41.027344 Z M 0 8.972656 "/>
<path style=" stroke:none;fill-rule:nonzero;fill:rgb(85.09804%,13.333334%,16.470589%);fill-opacity:1;" d="M 28.78125 25 C 28.78125 31.355469 23.628906 36.507812 17.277344 36.507812 C 10.921875 36.507812 5.769531 31.355469 5.769531 25 C 5.769531 18.644531 10.921875 13.492188 17.277344 13.492188 C 23.628906 13.492188 28.78125 18.644531 28.78125 25 "/>
<path style=" stroke:none;fill-rule:nonzero;fill:rgb(93.333334%,62.352943%,17.647059%);fill-opacity:1;" d="M 32.722656 13.492188 C 29.75 13.492188 27.042969 14.621094 25 16.472656 C 24.582031 16.847656 24.195312 17.257812 23.835938 17.691406 L 26.164062 17.691406 C 26.480469 18.078125 26.773438 18.484375 27.039062 18.910156 L 22.960938 18.910156 C 22.714844 19.300781 22.492188 19.707031 22.296875 20.125 L 27.703125 20.125 C 27.886719 20.523438 28.050781 20.929688 28.1875 21.34375 L 21.808594 21.34375 C 21.675781 21.746094 21.566406 22.152344 21.476562 22.5625 L 28.523438 22.5625 C 28.695312 23.363281 28.78125 24.179688 28.78125 25 C 28.78125 26.277344 28.574219 27.507812 28.1875 28.65625 L 21.808594 28.65625 C 21.949219 29.070312 22.113281 29.476562 22.296875 29.875 L 27.703125 29.875 C 27.503906 30.292969 27.285156 30.699219 27.039062 31.09375 L 22.960938 31.09375 C 23.226562 31.515625 23.519531 31.925781 23.835938 32.308594 L 26.160156 32.308594 C 25.804688 32.746094 25.417969 33.152344 25 33.527344 C 27.042969 35.378906 29.75 36.507812 32.722656 36.507812 C 39.078125 36.507812 44.230469 31.355469 44.230469 25 C 44.230469 18.644531 39.078125 13.492188 32.722656 13.492188 "/>
<path style=" stroke:none;fill-rule:nonzero;fill:rgb(0%,0%,0%);fill-opacity:1;" d="M 42.699219 31.414062 C 42.699219 31.207031 42.863281 31.042969 43.070312 31.042969 C 43.273438 31.042969 43.441406 31.207031 43.441406 31.414062 C 43.441406 31.621094 43.273438 31.785156 43.070312 31.785156 C 42.863281 31.785156 42.699219 31.621094 42.699219 31.414062 Z M 43.070312 31.695312 C 43.226562 31.695312 43.351562 31.570312 43.351562 31.414062 C 43.351562 31.257812 43.226562 31.132812 43.070312 31.132812 C 42.914062 31.132812 42.785156 31.257812 42.785156 31.414062 C 42.785156 31.570312 42.914062 31.695312 43.070312 31.695312 Z M 43.019531 31.578125 L 42.941406 31.578125 L 42.941406 31.25 L 43.082031 31.25 C 43.109375 31.25 43.136719 31.25 43.164062 31.265625 C 43.191406 31.285156 43.207031 31.316406 43.207031 31.347656 C 43.207031 31.386719 43.183594 31.417969 43.148438 31.433594 L 43.207031 31.578125 L 43.125 31.578125 L 43.074219 31.449219 L 43.019531 31.449219 Z M 43.019531 31.390625 L 43.0625 31.390625 C 43.078125 31.390625 43.09375 31.394531 43.109375 31.386719 C 43.121094 31.378906 43.125 31.363281 43.125 31.347656 C 43.125 31.335938 43.117188 31.320312 43.109375 31.316406 C 43.09375 31.308594 43.074219 31.308594 43.058594 31.308594 L 43.019531 31.308594 Z M 14.589844 26.261719 C 14.457031 26.246094 14.402344 26.242188 14.308594 26.242188 C 13.601562 26.242188 13.242188 26.484375 13.242188 26.964844 C 13.242188 27.257812 13.417969 27.445312 13.691406 27.445312 C 14.199219 27.445312 14.566406 26.960938 14.589844 26.261719 Z M 15.496094 28.375 L 14.460938 28.375 L 14.488281 27.882812 C 14.171875 28.273438 13.75 28.457031 13.175781 28.457031 C 12.5 28.457031 12.035156 27.929688 12.035156 27.160156 C 12.035156 26.003906 12.84375 25.332031 14.230469 25.332031 C 14.371094 25.332031 14.550781 25.34375 14.738281 25.367188 C 14.777344 25.210938 14.789062 25.144531 14.789062 25.058594 C 14.789062 24.746094 14.570312 24.628906 13.984375 24.628906 C 13.375 24.621094 12.871094 24.773438 12.664062 24.839844 C 12.675781 24.761719 12.835938 23.773438 12.835938 23.773438 C 13.460938 23.589844 13.871094 23.523438 14.332031 23.523438 C 15.40625 23.523438 15.972656 24.003906 15.972656 24.914062 C 15.972656 25.15625 15.933594 25.457031 15.871094 25.855469 C 15.761719 26.542969 15.53125 28.015625 15.496094 28.375 Z M 11.511719 28.375 L 10.265625 28.375 L 10.980469 23.886719 L 9.382812 28.375 L 8.53125 28.375 L 8.425781 23.914062 L 7.671875 28.375 L 6.503906 28.375 L 7.480469 22.539062 L 9.277344 22.539062 L 9.386719 25.804688 L 10.480469 22.539062 L 12.480469 22.539062 L 11.511719 28.375 M 34.269531 26.261719 C 34.136719 26.246094 34.078125 26.242188 33.988281 26.242188 C 33.28125 26.242188 32.921875 26.484375 32.921875 26.964844 C 32.921875 27.257812 33.097656 27.445312 33.371094 27.445312 C 33.878906 27.445312 34.246094 26.960938 34.269531 26.261719 Z M 35.175781 28.375 L 34.140625 28.375 L 34.164062 27.882812 C 33.851562 28.273438 33.429688 28.457031 32.855469 28.457031 C 32.179688 28.457031 31.714844 27.929688 31.714844 27.160156 C 31.714844 26.003906 32.523438 25.332031 33.910156 25.332031 C 34.050781 25.332031 34.230469 25.34375 34.417969 25.367188 C 34.457031 25.210938 34.464844 25.144531 34.464844 25.058594 C 34.464844 24.746094 34.25 24.628906 33.664062 24.628906 C 33.054688 24.621094 32.550781 24.773438 32.34375 24.839844 C 32.355469 24.761719 32.515625 23.773438 32.515625 23.773438 C 33.140625 23.589844 33.550781 23.523438 34.011719 23.523438 C 35.085938 23.523438 35.652344 24.003906 35.652344 24.914062 C 35.652344 25.15625 35.613281 25.457031 35.550781 25.855469 C 35.441406 26.542969 35.210938 28.015625 35.175781 28.375 Z M 21.050781 28.304688 C 20.707031 28.410156 20.441406 28.457031 20.152344 28.457031 C 19.515625 28.457031 19.164062 28.089844 19.164062 27.414062 C 19.15625 27.203125 19.257812 26.652344 19.335938 26.148438 C 19.410156 25.707031 19.878906 22.910156 19.878906 22.910156 L 21.121094 22.910156 L 20.976562 23.628906 L 21.726562 23.628906 L 21.554688 24.769531 L 20.804688 24.769531 C 20.660156 25.671875 20.453125 26.796875 20.449219 26.945312 C 20.449219 27.191406 20.582031 27.296875 20.878906 27.296875 C 21.019531 27.296875 21.132812 27.28125 21.214844 27.25 L 21.050781 28.304688 M 24.855469 28.265625 C 24.429688 28.394531 24.019531 28.457031 23.582031 28.457031 C 22.191406 28.457031 21.46875 27.730469 21.46875 26.339844 C 21.46875 24.714844 22.390625 23.523438 23.640625 23.523438 C 24.664062 23.523438 25.320312 24.191406 25.320312 25.238281 C 25.320312 25.589844 25.273438 25.925781 25.164062 26.40625 L 22.691406 26.40625 C 22.609375 27.097656 23.050781 27.382812 23.773438 27.382812 C 24.21875 27.382812 24.617188 27.292969 25.0625 27.082031 Z M 24.160156 25.449219 C 24.167969 25.351562 24.289062 24.601562 23.582031 24.601562 C 23.1875 24.601562 22.902344 24.90625 22.789062 25.449219 Z M 16.246094 25.128906 C 16.246094 25.730469 16.539062 26.144531 17.199219 26.453125 C 17.703125 26.691406 17.78125 26.761719 17.78125 26.976562 C 17.78125 27.273438 17.558594 27.40625 17.066406 27.40625 C 16.691406 27.40625 16.347656 27.347656 15.945312 27.21875 C 15.945312 27.21875 15.78125 28.265625 15.773438 28.316406 C 16.058594 28.378906 16.3125 28.4375 17.074219 28.457031 C 18.394531 28.457031 19 27.953125 19 26.871094 C 19 26.21875 18.746094 25.835938 18.121094 25.546875 C 17.597656 25.308594 17.539062 25.253906 17.539062 25.03125 C 17.539062 24.773438 17.746094 24.644531 18.148438 24.644531 C 18.394531 24.644531 18.730469 24.671875 19.046875 24.714844 L 19.222656 23.613281 C 18.898438 23.5625 18.410156 23.523438 18.125 23.523438 C 16.726562 23.523438 16.242188 24.253906 16.246094 25.128906 M 30.933594 23.648438 C 31.28125 23.648438 31.601562 23.738281 32.050781 23.960938 L 32.253906 22.695312 C 32.070312 22.625 31.425781 22.203125 30.878906 22.203125 C 30.042969 22.203125 29.335938 22.617188 28.839844 23.300781 C 28.117188 23.0625 27.816406 23.546875 27.453125 24.03125 L 27.128906 24.105469 C 27.152344 23.945312 27.175781 23.789062 27.167969 23.628906 L 26.019531 23.628906 C 25.863281 25.097656 25.585938 26.585938 25.367188 28.054688 L 25.3125 28.375 L 26.5625 28.375 C 26.769531 27.019531 26.882812 26.152344 26.953125 25.566406 L 27.425781 25.304688 C 27.496094 25.042969 27.714844 24.953125 28.15625 24.964844 C 28.097656 25.285156 28.066406 25.609375 28.066406 25.9375 C 28.066406 27.488281 28.90625 28.457031 30.25 28.457031 C 30.597656 28.457031 30.894531 28.410156 31.355469 28.285156 L 31.574219 26.957031 C 31.160156 27.160156 30.820312 27.253906 30.511719 27.253906 C 29.785156 27.253906 29.347656 26.71875 29.347656 25.832031 C 29.347656 24.546875 30 23.648438 30.933594 23.648438 "/>
<path style=" stroke:none;fill-rule:nonzero;fill:rgb(100%,100%,100%);fill-opacity:1;" d="M 11.871094 28.027344 L 10.621094 28.027344 L 11.339844 23.542969 L 9.742188 28.027344 L 8.890625 28.027344 L 8.785156 23.566406 L 8.03125 28.027344 L 6.863281 28.027344 L 7.839844 22.191406 L 9.636719 22.191406 L 9.6875 25.804688 L 10.898438 22.191406 L 12.839844 22.191406 L 11.871094 28.027344 "/>
<path style=" stroke:none;fill-rule:nonzero;fill:rgb(0%,0%,0%);fill-opacity:1;" d="M 41.507812 22.539062 L 41.230469 24.226562 C 40.890625 23.773438 40.523438 23.449219 40.039062 23.449219 C 39.40625 23.449219 38.832031 23.929688 38.457031 24.632812 C 37.933594 24.523438 37.394531 24.339844 37.394531 24.339844 L 37.394531 24.34375 C 37.4375 23.949219 37.453125 23.710938 37.449219 23.628906 L 36.300781 23.628906 C 36.144531 25.097656 35.867188 26.585938 35.652344 28.054688 L 35.59375 28.375 L 36.84375 28.375 C 37.011719 27.28125 37.140625 26.371094 37.234375 25.648438 C 37.664062 25.261719 37.875 24.925781 38.308594 24.949219 C 38.117188 25.410156 38.003906 25.941406 38.003906 26.488281 C 38.003906 27.675781 38.605469 28.457031 39.511719 28.457031 C 39.972656 28.457031 40.324219 28.300781 40.664062 27.933594 L 40.605469 28.375 L 41.789062 28.375 L 42.738281 22.539062 Z M 39.945312 27.277344 C 39.519531 27.277344 39.304688 26.964844 39.304688 26.34375 C 39.304688 25.410156 39.707031 24.75 40.273438 24.75 C 40.703125 24.75 40.9375 25.074219 40.9375 25.679688 C 40.9375 26.621094 40.527344 27.277344 39.945312 27.277344 Z M 39.945312 27.277344 "/>
<path style=" stroke:none;fill-rule:nonzero;fill:rgb(100%,100%,100%);fill-opacity:1;" d="M 14.949219 25.914062 C 14.816406 25.898438 14.757812 25.894531 14.667969 25.894531 C 13.960938 25.894531 13.601562 26.136719 13.601562 26.617188 C 13.601562 26.914062 13.777344 27.101562 14.050781 27.101562 C 14.558594 27.101562 14.925781 26.617188 14.949219 25.914062 Z M 15.855469 28.027344 L 14.820312 28.027344 L 14.84375 27.539062 C 14.53125 27.925781 14.109375 28.109375 13.535156 28.109375 C 12.859375 28.109375 12.394531 27.582031 12.394531 26.8125 C 12.394531 25.660156 13.203125 24.984375 14.589844 24.984375 C 14.730469 24.984375 14.910156 24.996094 15.097656 25.019531 C 15.136719 24.863281 15.144531 24.796875 15.144531 24.714844 C 15.144531 24.398438 14.929688 24.28125 14.34375 24.28125 C 13.734375 24.273438 13.230469 24.425781 13.023438 24.496094 C 13.035156 24.414062 13.195312 23.429688 13.195312 23.429688 C 13.816406 23.246094 14.230469 23.175781 14.691406 23.175781 C 15.765625 23.175781 16.332031 23.65625 16.332031 24.566406 C 16.332031 24.8125 16.292969 25.113281 16.230469 25.507812 C 16.121094 26.195312 15.886719 27.671875 15.855469 28.027344 Z M 32.613281 22.347656 L 32.40625 23.617188 C 31.960938 23.390625 31.636719 23.300781 31.292969 23.300781 C 30.359375 23.300781 29.707031 24.203125 29.707031 25.488281 C 29.707031 26.375 30.144531 26.910156 30.871094 26.910156 C 31.179688 26.910156 31.519531 26.8125 31.933594 26.609375 L 31.710938 27.941406 C 31.253906 28.066406 30.957031 28.109375 30.609375 28.109375 C 29.265625 28.109375 28.425781 27.144531 28.425781 25.589844 C 28.425781 23.503906 29.582031 22.046875 31.238281 22.046875 C 31.785156 22.046875 32.429688 22.277344 32.613281 22.347656 M 34.628906 25.914062 C 34.496094 25.898438 34.4375 25.894531 34.347656 25.894531 C 33.640625 25.894531 33.28125 26.136719 33.28125 26.617188 C 33.28125 26.914062 33.457031 27.101562 33.730469 27.101562 C 34.238281 27.101562 34.605469 26.617188 34.628906 25.914062 Z M 35.535156 28.027344 L 34.5 28.027344 L 34.523438 27.539062 C 34.210938 27.925781 33.789062 28.109375 33.214844 28.109375 C 32.539062 28.109375 32.074219 27.582031 32.074219 26.8125 C 32.074219 25.660156 32.882812 24.984375 34.269531 24.984375 C 34.410156 24.984375 34.589844 24.996094 34.777344 25.019531 C 34.816406 24.863281 34.824219 24.796875 34.824219 24.714844 C 34.824219 24.398438 34.609375 24.28125 34.023438 24.28125 C 33.414062 24.273438 32.910156 24.425781 32.703125 24.496094 C 32.714844 24.414062 32.875 23.429688 32.875 23.429688 C 33.5 23.246094 33.910156 23.175781 34.371094 23.175781 C 35.445312 23.175781 36.011719 23.65625 36.011719 24.566406 C 36.011719 24.8125 35.972656 25.113281 35.910156 25.507812 C 35.800781 26.195312 35.566406 27.671875 35.535156 28.027344 Z M 21.410156 27.957031 C 21.066406 28.0625 20.800781 28.109375 20.511719 28.109375 C 19.871094 28.109375 19.523438 27.742188 19.523438 27.066406 C 19.515625 26.859375 19.617188 26.308594 19.695312 25.804688 C 19.769531 25.359375 20.238281 22.5625 20.238281 22.5625 L 21.480469 22.5625 L 21.332031 23.28125 L 21.972656 23.28125 L 21.800781 24.421875 L 21.164062 24.421875 C 21.019531 25.324219 20.8125 26.449219 20.808594 26.597656 C 20.808594 26.84375 20.941406 26.949219 21.238281 26.949219 C 21.378906 26.949219 21.488281 26.9375 21.574219 26.90625 L 21.410156 27.957031 M 25.214844 27.917969 C 24.789062 28.050781 24.378906 28.113281 23.941406 28.109375 C 22.550781 28.109375 21.828125 27.382812 21.828125 25.992188 C 21.828125 24.371094 22.75 23.175781 24 23.175781 C 25.023438 23.175781 25.679688 23.84375 25.679688 24.894531 C 25.679688 25.242188 25.632812 25.582031 25.523438 26.0625 L 23.050781 26.0625 C 22.96875 26.75 23.410156 27.039062 24.132812 27.039062 C 24.574219 27.039062 24.976562 26.945312 25.421875 26.738281 Z M 24.519531 25.105469 C 24.527344 25.003906 24.648438 24.257812 23.941406 24.257812 C 23.546875 24.257812 23.261719 24.558594 23.148438 25.105469 Z M 16.605469 24.78125 C 16.605469 25.382812 16.898438 25.796875 17.558594 26.109375 C 18.0625 26.347656 18.140625 26.417969 18.140625 26.632812 C 18.140625 26.929688 17.917969 27.0625 17.425781 27.0625 C 17.050781 27.0625 16.707031 27.003906 16.304688 26.875 C 16.304688 26.875 16.140625 27.921875 16.132812 27.96875 C 16.417969 28.03125 16.671875 28.089844 17.433594 28.109375 C 18.753906 28.109375 19.359375 27.609375 19.359375 26.523438 C 19.359375 25.871094 19.105469 25.488281 18.480469 25.203125 C 17.957031 24.960938 17.894531 24.90625 17.894531 24.6875 C 17.894531 24.429688 18.105469 24.296875 18.507812 24.296875 C 18.753906 24.296875 19.085938 24.324219 19.40625 24.371094 L 19.582031 23.269531 C 19.257812 23.21875 18.769531 23.175781 18.484375 23.175781 C 17.085938 23.175781 16.601562 23.90625 16.605469 24.78125 M 42.148438 28.027344 L 40.964844 28.027344 L 41.023438 27.585938 C 40.683594 27.953125 40.332031 28.109375 39.875 28.109375 C 38.964844 28.109375 38.363281 27.328125 38.363281 26.140625 C 38.363281 24.5625 39.296875 23.230469 40.398438 23.230469 C 40.882812 23.230469 41.25 23.429688 41.589844 23.878906 L 41.867188 22.191406 L 43.097656 22.191406 Z M 40.304688 26.933594 C 40.886719 26.933594 41.296875 26.273438 41.296875 25.332031 C 41.296875 24.730469 41.0625 24.402344 40.632812 24.402344 C 40.066406 24.402344 39.664062 25.0625 39.664062 25.996094 C 39.664062 26.617188 39.878906 26.933594 40.304688 26.933594 Z M 36.660156 23.28125 C 36.503906 24.75 36.226562 26.238281 36.011719 27.710938 L 35.953125 28.027344 L 37.203125 28.027344 C 37.648438 25.125 37.757812 24.558594 38.457031 24.628906 C 38.570312 24.035156 38.777344 23.515625 38.933594 23.253906 C 38.410156 23.144531 38.117188 23.441406 37.734375 24.003906 C 37.765625 23.757812 37.820312 23.523438 37.808594 23.28125 L 36.660156 23.28125 M 26.378906 23.28125 C 26.222656 24.75 25.945312 26.238281 25.726562 27.710938 L 25.667969 28.027344 L 26.917969 28.027344 C 27.367188 25.125 27.472656 24.558594 28.175781 24.628906 C 28.285156 24.035156 28.496094 23.515625 28.648438 23.253906 C 28.125 23.144531 27.832031 23.441406 27.453125 24.003906 C 27.480469 23.757812 27.535156 23.523438 27.527344 23.28125 L 26.378906 23.28125 M 42.695312 27.65625 C 42.695312 27.449219 42.863281 27.285156 43.070312 27.285156 C 43.273438 27.285156 43.441406 27.449219 43.441406 27.65625 C 43.441406 27.863281 43.273438 28.027344 43.070312 28.027344 C 42.863281 28.027344 42.695312 27.863281 42.695312 27.65625 Z M 43.070312 27.9375 C 43.222656 27.9375 43.351562 27.8125 43.351562 27.65625 C 43.351562 27.5 43.222656 27.375 43.070312 27.375 C 42.914062 27.375 42.785156 27.5 42.785156 27.65625 C 42.785156 27.8125 42.914062 27.9375 43.070312 27.9375 Z M 43.019531 27.820312 L 42.941406 27.820312 L 42.941406 27.492188 L 43.082031 27.492188 C 43.109375 27.492188 43.136719 27.492188 43.164062 27.507812 C 43.191406 27.527344 43.207031 27.558594 43.207031 27.589844 C 43.207031 27.628906 43.183594 27.664062 43.148438 27.675781 L 43.207031 27.820312 L 43.125 27.820312 L 43.074219 27.691406 L 43.019531 27.691406 Z M 43.019531 27.632812 L 43.058594 27.632812 C 43.074219 27.632812 43.09375 27.636719 43.105469 27.628906 C 43.121094 27.621094 43.125 27.605469 43.125 27.589844 C 43.125 27.578125 43.117188 27.566406 43.105469 27.558594 C 43.09375 27.550781 43.074219 27.550781 43.058594 27.550781 L 43.019531 27.550781 Z M 43.019531 27.632812 "/>
</g>
</svg>
